<svg xmlns="http://www.w3.org/2000/svg" version="1.1" xmlns:xlink="http://www.w3.org/1999/xlink" xmlns:svgjs="http://svgjs.dev/svgjs" width="1447" height="561" preserveAspectRatio="none" viewBox="0 0 1447 561"><g mask="url(&quot;#SvgjsMask1119&quot;)" fill="none"><rect width="1447" height="561" x="0" y="0" fill="rgba(24, 106, 59, 1)"></rect><path d="M0,400.894C97.928,415.341,198.926,491.654,287.272,447.005C374.567,402.887,373.973,278.285,416.698,190.3C460.712,99.661,559.269,21.347,542.189,-77.955C525.076,-177.449,400.496,-213.449,334.163,-289.554C268.1,-365.349,244.955,-481.303,153.749,-523.62C59.615,-567.296,-60.857,-565.893,-151.135,-514.72C-238.163,-465.389,-243.846,-343.403,-304.51,-263.859C-359.795,-191.369,-472.5,-159.924,-489.963,-70.446C-507.425,19.028,-436.207,99.419,-390.843,178.492C-349.364,250.794,-309.965,328.361,-237.518,369.586C-166.676,409.897,-80.635,388.998,0,400.894" fill="#13542f"></path><path d="M1447 1084.325C1567.22 1094.819 1692.529 1164.88 1800.6680000000001 1111.319 1909.7440000000001 1057.2939999999999 1945.819 922.617 1996.72 812.049 2047.771 701.157 2103.389 589.452 2097.041 467.538 2090.37 339.424 2067.042 187.498 1960.48 116.06700000000001 1852.057 43.388000000000034 1707.335 121.483 1576.833 118.82900000000001 1486.752 116.99700000000001 1402.115 93.67500000000001 1312.487 102.88999999999999 1205.259 113.91500000000002 1088.984 110.58300000000003 1004.607 177.664 914.874 249.002 857.522 360.5 845.107 474.461 832.862 586.86 887.411 692.317 937.498 793.682 986.2370000000001 892.319 1035.339 998.338 1130.905 1052.853 1224.78 1106.404 1339.334 1074.9270000000001 1447 1084.325" fill="#1d8047"></path></g><defs><mask id="SvgjsMask1119"><rect width="1447" height="561" fill="#ffffff"></rect></mask></defs></svg>