<svg xmlns="http://www.w3.org/2000/svg" version="1.1" xmlns:xlink="http://www.w3.org/1999/xlink" xmlns:svgjs="http://svgjs.dev/svgjs" width="1447" height="561" preserveAspectRatio="none" viewBox="0 0 1447 561"><g mask="url(&quot;#SvgjsMask1050&quot;)" fill="none"><rect width="1447" height="561" x="0" y="0" fill="rgba(78, 87, 82, 1)"></rect><path d="M0,412.823C80.506,411.046,155.883,389.077,230.35,358.432C319.368,321.799,424.214,298.617,475.485,217.147C528.103,133.536,512.821,26.04,501.278,-72.073C489.484,-172.317,486.874,-290.434,408.311,-353.803C329.694,-417.216,210.326,-357.818,113.099,-385.18C17.591,-412.058,-52.878,-531.109,-150.022,-510.93C-245.926,-491.009,-286.785,-376.03,-336.695,-291.748C-379.223,-219.931,-392.269,-139.661,-417.071,-59.966C-447.279,37.099,-537.683,133.848,-498.312,227.571C-459.174,320.74,-331.702,333.534,-236.98,368.748C-160.111,397.325,-81.989,414.633,0,412.823" fill="#3e4642"></path><path d="M1447 1276.1950000000002C1577.091 1244.993 1633.209 1095.403 1733.65 1007.0360000000001 1815.393 935.12 1928.568 900.173 1982.136 805.388 2037.8220000000001 706.854 2042.8809999999999 589.473 2033.3719999999998 476.692 2023.425 358.71299999999997 2000.6 237.85399999999998 1926.501 145.51 1851.089 51.52999999999997 1733.8229999999999 9.697999999999979 1622.209-35.706999999999994 1499.005-85.827 1374.364-155.64200000000005 1243.407-132.375 1107.556-108.23800000000006 962.1859999999999-34.072 905.349 91.65699999999998 848.805 216.74 958.088 353.971 961.517 491.198 964.164 597.132 908.455 695.321 923.054 800.278 941.45 932.5350000000001 957.037 1079.815 1055.879 1169.596 1157.972 1262.33 1312.882 1308.363 1447 1276.1950000000002" fill="#5e6862"></path></g><defs><mask id="SvgjsMask1050"><rect width="1447" height="561" fill="#ffffff"></rect></mask></defs></svg>