<?xml version="1.0" encoding="iso-8859-1"?>
<!-- Uploaded to: SVG Repo, www.svgrepo.com, Generator: SVG Repo Mixer Tools -->
<svg fill="#000000" height="800px" width="800px" version="1.1" id="Layer_1" xmlns="http://www.w3.org/2000/svg" xmlns:xlink="http://www.w3.org/1999/xlink" 
	 viewBox="0 0 455 455" xml:space="preserve">
<g>
	<polygon points="197.891,234.97 213.011,234.97 205.541,212.38 	"/>
	<path d="M156.042,210.58c-0.661-0.72-1.41-1.245-2.25-1.575c-0.841-0.329-1.68-0.495-2.52-0.495h-11.52v17.46h12.06
		c1.74,0,3.24-0.75,4.5-2.25c1.26-1.499,1.89-3.69,1.89-6.57c0-1.499-0.195-2.79-0.585-3.87
		C157.226,212.2,156.701,211.3,156.042,210.58z"/>
	<path d="M314.079,213.73c-1.439-1.679-3.21-2.97-5.31-3.87c-2.101-0.9-4.471-1.35-7.11-1.35h-9.09v37.98h9.09
		c2.7,0,5.1-0.479,7.2-1.44c2.1-0.959,3.854-2.295,5.265-4.005c1.409-1.71,2.489-3.72,3.24-6.03c0.75-2.309,1.125-4.844,1.125-7.605
		c0-2.819-0.375-5.384-1.125-7.695C316.613,217.406,315.52,215.41,314.079,213.73z"/>
	<path d="M0,113.06V341.94h455V113.06H0z M171.657,225.25c-0.99,2.581-2.371,4.891-4.14,6.93c-1.771,2.041-3.915,3.661-6.435,4.86
		c-2.52,1.201-5.31,1.8-8.37,1.8h-12.96v20.61h-14.76v-63.9h27.27c3.06,0,5.864,0.63,8.415,1.89c2.549,1.26,4.739,2.911,6.57,4.95
		c1.83,2.041,3.27,4.351,4.32,6.93c1.049,2.581,1.575,5.19,1.575,7.83C173.142,219.971,172.646,222.671,171.657,225.25z
		 M220.391,259.45l-4.95-14.31h-19.89l-4.86,14.31h-15.12l23.31-63.9h13.32l23.31,63.9H220.391z M261.07,259.45h-14.76v-63.9h14.76
		V259.45z M331.27,240.595c-1.501,3.931-3.646,7.29-6.436,10.08c-2.789,2.79-6.15,4.95-10.079,6.48
		c-3.931,1.53-8.296,2.295-13.096,2.295h-23.85v-63.9h23.85c5.279,0,9.9,0.841,13.86,2.52c3.96,1.68,7.274,3.96,9.945,6.84
		c2.669,2.88,4.68,6.255,6.029,10.125c1.351,3.87,2.025,7.996,2.025,12.375C333.52,232.27,332.769,236.666,331.27,240.595z"/>
</g>
</svg>